<?xml version="1.0" encoding="utf-8"?>
<!-- Generator: Adobe Illustrator 18.1.1, SVG Export Plug-In . SVG Version: 6.00 Build 0)  -->
<!DOCTYPE svg PUBLIC "-//W3C//DTD SVG 1.1//EN" "http://www.w3.org/Graphics/SVG/1.1/DTD/svg11.dtd">
<svg version="1.1" id="Ebene_1" xmlns="http://www.w3.org/2000/svg" xmlns:xlink="http://www.w3.org/1999/xlink" x="0px" y="0px"
	 viewBox="109.6 0 162.9 100" enable-background="new 109.6 0 162.9 100" xml:space="preserve">
<g id="Layer1">
	<path fill="#00F1A8" d="M191.8,11.7C200.2,5,210.7,0,222.4,0c27.6,0,50.1,22.3,50.1,50s-22.3,50-49.9,50
		c-12.2,0-22.1-3.2-30.8-10.7c11.7-9.1,17.7-23.3,17.7-39.3C209.6,34.7,202.6,21,191.8,11.7z M191.8,89.3
		c-8.5,6.7-20.5,10.7-32.2,10.7c-27.6,0-50-22.4-50-50s22.4-50,50-50c12.2,0,23.4,4.2,32.2,11.7C180.1,20.8,172.6,34,172.6,50
		C172.6,65.3,180.8,80,191.8,89.3z"/>
</g>
</svg>
